#!OML:ASF F:\VICON\USERDATA\INSTALL\rory3\rory3.ASF
:FULLY-SPECIFIED
:DEGREES
1
root 0.8911850874361156 17.614005281646865 -27.75388370046523 -2.557112016267979 2.4780714452140433 2.700716238196858
lfemur 18.61418278234107 -5.087220222115147 -27.718688832734255
ltibia 16.86251006609938
lfoot -13.17699243713453 -5.263039999225766
ltoes -9.93200721418576
rfemur -28.629892453914078 5.429934277507104 18.51681323609878
rtibia 22.819509587010618
rfoot -8.440165755069204 -12.094789915962085
rtoes -0.03645675258180203
lowerback 9.200291306593929 -2.0620926692103327 -5.642132536455175
upperback 0.40780299437011885 -3.252292348924171 1.7192082392847008
thorax -4.319573700124713 -1.4846615213026633 5.385531483865029
lowerneck -17.007503315101587 -2.221460883374858 -1.9956308869217632
upperneck 21.172492931438278 -2.4885619658756357 -0.28808051416513214
head 9.522912905528685 -1.3565703353621363 -0.09425349872694111
lclavicle -9.152774658033771e-16 -7.746725384768721e-16
lhumerus -23.18931120586518 -0.9676628952119679 81.17870782805508
lradius 30.576707245707155
lwrist 6.029997552947794
lhand -32.670485238407196 25.677988621846808
lfingers 7.125020000000057
lthumb -5.896085237410171 55.575988674281284
rclavicle -9.152774658033771e-16 -7.746725384768721e-16
rhumerus -32.95660354474068 -19.223192465444562 -77.31120804909673
rradius 25.223908789681225
rwrist 5.408481910762899
rhand -17.464203065428595 22.576307983520294
rfingers 7.125020000000057
rthumb 8.78744693284227 -7.220792029458658
2
root 0.8420478126844774 17.70900307027215 -26.89398407301826 -2.7781913899504644 2.0583625697755363 0.18071250005565753
lfemur 16.97768368941832 -6.267417203748744 -25.31449243828524
ltibia 24.83490691673762
lfoot -9.319865210480163 -7.818306736954227
ltoes -16.356990419315537
rfemur -27.151193268598103 5.980792972478066 21.579308514153276
rtibia 24.467308971169103
rfoot -5.496887808593838 -9.607474700509162
rtoes 1.3429317866417152
lowerback 9.211851265934854 -1.9730232638492482 -2.880069589949702
upperback 0.2478109290870803 -2.8099641901135475 2.4443516509822905
thorax -4.645672107685071 -1.3025732491518194 4.540184872791479
lowerneck -17.027703219757054 -2.721306494623452 -2.4125841815972935
upperneck 22.21579095184312 -3.043978734804874 -0.41519084491113967
head 9.90686030208811 -1.6670160294432497 -0.15278283038677298
lclavicle -9.152775032096796e-16 -7.746725186159314e-16
lhumerus -24.059210594981806 -0.46196246364726345 82.03600665693912
lradius 30.610607237692523
lwrist 6.360527320846813
lhand -32.81178479664388 24.77578945262242
lfingers 7.125020000000057
lthumb -6.032544795603898 54.66988950851967
rclavicle -9.152775032096796e-16 -7.746725186159314e-16
rhumerus -33.70950297243587 -21.84669089701245 -75.27580993464429
rradius 23.431009220246487
rwrist 7.533600144084681
rhand -17.049405461946545 23.47990696842695
rfingers 7.125020000000057
rthumb 9.187634537067332 -6.299913064310144
3
root 0.8092752963949401 17.772901582831686 -26.048284439419227 -2.9170009967030657 1.1234050748862054 -0.35078996832125986
lfemur 14.046585314065052 -4.885010739268058 -24.106094250508768
ltibia 33.69030341856163
lfoot 1.6518169006779826 -11.816491632530234
ltoes -12.471794528182603
rfemur -25.853493983560814 4.367196795218602 23.030606276452236
rtibia 27.432007863155118
rfoot -4.47424852208912 -5.8715418868707
rtoes 3.825589517464894
lowerback 9.14583149814179 -1.9476634331547706 -2.2131712930113476
upperback -0.18714981111506582 -2.6844047127544224 2.800798412479364
thorax -5.0903799360388575 -1.234623893928307 4.534884894038662
lowerneck -15.832908859244517 -2.422579117513736 -2.8313874465221263
upperneck 21.96049143625857 -2.5439916434201093 -0.45425763921890683
head 9.594512420032277 -1.4774586586266418 -0.012161056907645407
lclavicle -9.152774625704163e-16 -7.746725398009204e-16
lhumerus -26.762208696812138 1.9633548101617606 82.31540627526432
lradius 30.43020728034248
lwrist 5.882037656846585
lhand -32.79578484666662 18.140795562349666
lfingers 7.125020000000057
lthumb -6.017034845819472 48.03529561693823
rclavicle -9.152774625704163e-16 -7.746725398009204e-16
rhumerus -34.79540214700648 -23.53678988660378 -73.05831198888505
rradius 21.79150961397285
rwrist 10.164887956611633
rhand -16.729007313066006 23.184307300500397
rfingers 7.125020000000057
rthumb 9.496772686371754 -6.581682747667263
4
root 0.7409423049651244 17.87779914100845 -25.247184786497186 -3.3511097668735914 1.038245303061989 -1.2012325176131107
lfemur 9.04467808651788 -3.0749553685040034 -21.839597649552672
ltibia 43.488499547948436
lfoot 11.524589801972125 -14.26568850567654
ltoes 9.643162083700247
rfemur -23.4572953037379 3.0630398848723472 24.810903531479312
rtibia 29.164907215508766
rfoot -5.305667942007906 -3.493566461094059
rtoes 4.493658906842032
lowerback 9.614589849409235 -1.7064450435600675 -1.299123627219639
upperback 0.07611170537379952 -2.259836480018172 2.9259272756190224
thorax -5.146609661451675 -1.0478856659012399 4.107376607884923
lowerneck -16.36890632931041 -2.580707729110694 -2.531172274497264
upperneck 21.56919217872534 -2.8469398810548876 -0.36154112738455035
head 9.555892681901991 -1.5785872559609095 -0.0730187500458358
lclavicle -9.152774762503595e-16 -7.746725292084176e-16
lhumerus -27.72530802047951 1.1998056684333056 83.04350528064222
lradius 30.952807156790044
lwrist 6.8962869446315604
lhand -31.276289597263645 20.263193607973594
lfingers 7.125020000000057
lthumb -4.549899595868154 50.19439362907361
rclavicle -9.152774762503595e-16 -7.746725292084176e-16
rhumerus -34.790502150731136 -24.490989316145235 -72.66831235017207
rradius 21.670109643127198
rwrist 10.208987919949948
rhand -16.500008636119553 22.516408050811226
rfingers 7.125020000000057
rthumb 9.717721363633876 -7.239362008590372
